<svg xmlns="http://www.w3.org/2000/svg" xmlns:xlink="http://www.w3.org/1999/xlink" xmlns:lucid="lucid" width="1831" height="671"><g transform="translate(40 -389)" lucid:page-tab-id="0_0"><path d="M160 420h1581.76" stroke="#000" stroke-width="2" fill="none"/><path d="M1756.76 420l-14.26 4.64v-9.28z" stroke="#000" stroke-width="2"/><path d="M160 480h160v80H160z" stroke="#000" stroke-width="2" fill="#99d5ca"/><use xlink:href="#a" transform="matrix(1,0,0,1,165,485) translate(55.575 38.6)"/><path d="M320 480h480v80H320z" stroke="#000" stroke-width="2" fill="#ccc"/><use xlink:href="#b" transform="matrix(1,0,0,1,325,485) translate(198.55 38.6)"/><use xlink:href="#c" transform="matrix(1,0,0,1,325,485) translate(247.45000000000002 38.6)"/><path d="M960 480h160v80H960z" stroke="#000" stroke-width="2" fill="#99d5ca"/><use xlink:href="#a" transform="matrix(1,0,0,1,965,485) translate(55.575 38.6)"/><path d="M320 600h160v80H320z" stroke="#000" stroke-width="2" fill="#99d5ca"/><use xlink:href="#a" transform="matrix(1,0,0,1,325,605) translate(55.575 38.6)"/><path d="M480 600h480v80H480z" stroke="#000" stroke-width="2" fill="#ccc"/><use xlink:href="#b" transform="matrix(1,0,0,1,485,605) translate(198.55 38.6)"/><use xlink:href="#c" transform="matrix(1,0,0,1,485,605) translate(247.45000000000002 38.6)"/><path d="M1120 600h160v80h-160z" stroke="#000" stroke-width="2" fill="#99d5ca"/><use xlink:href="#a" transform="matrix(1,0,0,1,1125,605) translate(55.575 38.6)"/><path d="M160 600h160v80H160z" stroke="#000" stroke-width="2" fill="#ff8f80"/><use xlink:href="#d" transform="matrix(1,0,0,1,165,605) translate(18.824999999999996 38.6)"/><use xlink:href="#e" transform="matrix(1,0,0,1,165,605) translate(68.675 38.6)"/><use xlink:href="#f" transform="matrix(1,0,0,1,165,605) translate(121.17500000000001 38.6)"/><path d="M480 720h160v80H480z" stroke="#000" stroke-width="2" fill="#99d5ca"/><use xlink:href="#a" transform="matrix(1,0,0,1,485,725) translate(55.575 38.6)"/><path d="M640 720h480v80H640z" stroke="#000" stroke-width="2" fill="#ccc"/><use xlink:href="#b" transform="matrix(1,0,0,1,645,725) translate(198.55 38.6)"/><use xlink:href="#c" transform="matrix(1,0,0,1,645,725) translate(247.45000000000002 38.6)"/><path d="M1280 720h160v80h-160z" stroke="#000" stroke-width="2" fill="#99d5ca"/><use xlink:href="#a" transform="matrix(1,0,0,1,1285,725) translate(55.575 38.6)"/><path d="M160 720h320v80H160z" stroke="#000" stroke-width="2" fill="#ff8f80"/><use xlink:href="#d" transform="matrix(1,0,0,1,165,725) translate(98.82499999999999 38.6)"/><use xlink:href="#e" transform="matrix(1,0,0,1,165,725) translate(148.67499999999998 38.6)"/><use xlink:href="#g" transform="matrix(1,0,0,1,165,725) translate(201.175 38.6)"/><path d="M640 840h160v80H640z" stroke="#000" stroke-width="2" fill="#99d5ca"/><use xlink:href="#a" transform="matrix(1,0,0,1,645,845) translate(55.575 38.6)"/><path d="M800 840h480v80H800z" stroke="#000" stroke-width="2" fill="#ccc"/><use xlink:href="#b" transform="matrix(1,0,0,1,805,845) translate(198.55 38.6)"/><use xlink:href="#c" transform="matrix(1,0,0,1,805,845) translate(247.45000000000002 38.6)"/><path d="M1440 840h160v80h-160z" stroke="#000" stroke-width="2" fill="#99d5ca"/><use xlink:href="#a" transform="matrix(1,0,0,1,1445,845) translate(55.575 38.6)"/><path d="M160 840h480v80H160z" stroke="#000" stroke-width="2" fill="#ff8f80"/><use xlink:href="#d" transform="matrix(1,0,0,1,165,845) translate(178.825 38.6)"/><use xlink:href="#e" transform="matrix(1,0,0,1,165,845) translate(228.67499999999998 38.6)"/><use xlink:href="#h" transform="matrix(1,0,0,1,165,845) translate(281.175 38.6)"/><path d="M1600 960h160v80h-160z" stroke="#000" stroke-width="2" fill="#99d5ca"/><use xlink:href="#a" transform="matrix(1,0,0,1,1605,965) translate(55.575 38.6)"/><path d="M160 960h640v80H160z" stroke="#000" stroke-width="2" fill="#ff8f80"/><use xlink:href="#d" transform="matrix(1,0,0,1,165,965) translate(258.825 38.6)"/><use xlink:href="#e" transform="matrix(1,0,0,1,165,965) translate(308.675 38.6)"/><use xlink:href="#i" transform="matrix(1,0,0,1,165,965) translate(361.175 38.6)"/><path d="M800 480h160v80H800z" stroke="#000" stroke-width="2" fill="#ff8f80"/><use xlink:href="#d" transform="matrix(1,0,0,1,805,485) translate(18.824999999999996 38.6)"/><use xlink:href="#e" transform="matrix(1,0,0,1,805,485) translate(68.675 38.6)"/><use xlink:href="#j" transform="matrix(1,0,0,1,805,485) translate(121.17500000000001 38.6)"/><path d="M960 600h160v80H960z" stroke="#000" stroke-width="2" fill="#ff8f80"/><use xlink:href="#d" transform="matrix(1,0,0,1,965,605) translate(18.824999999999996 38.6)"/><use xlink:href="#e" transform="matrix(1,0,0,1,965,605) translate(68.675 38.6)"/><use xlink:href="#f" transform="matrix(1,0,0,1,965,605) translate(121.17500000000001 38.6)"/><path d="M1120 720h160v80h-160z" stroke="#000" stroke-width="2" fill="#ff8f80"/><use xlink:href="#d" transform="matrix(1,0,0,1,1125,725) translate(18.824999999999996 38.6)"/><use xlink:href="#e" transform="matrix(1,0,0,1,1125,725) translate(68.675 38.6)"/><use xlink:href="#g" transform="matrix(1,0,0,1,1125,725) translate(121.17500000000001 38.6)"/><path d="M1280 840h160v80h-160z" stroke="#000" stroke-width="2" fill="#ff8f80"/><g><use xlink:href="#d" transform="matrix(1,0,0,1,1285,845) translate(18.824999999999996 38.6)"/><use xlink:href="#e" transform="matrix(1,0,0,1,1285,845) translate(68.675 38.6)"/><use xlink:href="#h" transform="matrix(1,0,0,1,1285,845) translate(121.17500000000001 38.6)"/></g><path d="M-20 490h240v60H-20z" stroke="#000" stroke-opacity="0" stroke-width="2" fill="#fff" fill-opacity="0"/><g><use xlink:href="#k" transform="matrix(1,0,0,1,-15,495) translate(87.7 28.6)"/><use xlink:href="#l" transform="matrix(1,0,0,1,-15,495) translate(132.3 28.6)"/></g><path d="M-20 610h240v60H-20z" stroke="#000" stroke-opacity="0" stroke-width="2" fill="#fff" fill-opacity="0"/><g><use xlink:href="#k" transform="matrix(1,0,0,1,-15,615) translate(87.7 28.6)"/><use xlink:href="#m" transform="matrix(1,0,0,1,-15,615) translate(132.3 28.6)"/></g><path d="M-20 730h240v60H-20z" stroke="#000" stroke-opacity="0" stroke-width="2" fill="#fff" fill-opacity="0"/><g><use xlink:href="#k" transform="matrix(1,0,0,1,-15,735) translate(87.7 28.6)"/><use xlink:href="#n" transform="matrix(1,0,0,1,-15,735) translate(132.3 28.6)"/></g><path d="M-20 850h240v60H-20z" stroke="#000" stroke-opacity="0" stroke-width="2" fill="#fff" fill-opacity="0"/><g><use xlink:href="#k" transform="matrix(1,0,0,1,-15,855) translate(87.7 28.6)"/><use xlink:href="#o" transform="matrix(1,0,0,1,-15,855) translate(132.3 28.6)"/></g><path d="M-20 970h240v60H-20z" stroke="#000" stroke-opacity="0" stroke-width="2" fill="#fff" fill-opacity="0"/><g><use xlink:href="#k" transform="matrix(1,0,0,1,-15,975) translate(87.7 28.6)"/><use xlink:href="#p" transform="matrix(1,0,0,1,-15,975) translate(132.3 28.6)"/></g><path d="M800 960h160v80H800z" stroke="#000" stroke-width="2" fill="#99d5ca"/><g><use xlink:href="#a" transform="matrix(1,0,0,1,805,965) translate(55.575 38.6)"/></g><path d="M960 960h480v80H960z" stroke="#000" stroke-width="2" fill="#ccc"/><g><use xlink:href="#b" transform="matrix(1,0,0,1,965,965) translate(198.55 38.6)"/><use xlink:href="#c" transform="matrix(1,0,0,1,965,965) translate(247.45000000000002 38.6)"/></g><path d="M1440 960h160v80h-160z" stroke="#000" stroke-width="2" fill="#ff8f80"/><g><use xlink:href="#d" transform="matrix(1,0,0,1,1445,965) translate(18.824999999999996 38.6)"/><use xlink:href="#e" transform="matrix(1,0,0,1,1445,965) translate(68.675 38.6)"/><use xlink:href="#i" transform="matrix(1,0,0,1,1445,965) translate(121.17500000000001 38.6)"/></g><defs><path d="M240-174c0 40-23 61-54 70L253 0h-59l-57-94H76V0H24v-248c93 4 217-23 216 74zM76-134c48-2 112 12 112-38 0-48-66-32-112-35v73" id="q"/><path d="M238-95c0 69-44 99-111 99C63 4 22-25 22-93v-155h51v151c-1 38 19 59 55 60 90 1 49-130 58-211h52v153" id="r"/><path d="M175 0L67-191c6 58 2 128 3 191H24v-248h59L193-55c-6-58-2-129-3-193h46V0h-61" id="s"/><g id="a"><use transform="matrix(0.05,0,0,0.05,0,0)" xlink:href="#q"/><use transform="matrix(0.05,0,0,0.05,12.950000000000001,0)" xlink:href="#r"/><use transform="matrix(0.05,0,0,0.05,25.900000000000002,0)" xlink:href="#s"/></g><path d="M266 0h-40l-56-210L115 0H75L2-248h35L96-30l15-64 43-154h32l59 218 59-218h35" id="t"/><path d="M205 0l-28-72H64L36 0H1l101-248h38L239 0h-34zm-38-99l-47-123c-12 45-31 82-46 123h93" id="u"/><path d="M33 0v-248h34V0H33" id="v"/><path d="M127-220V0H93v-220H8v-28h204v28h-85" id="w"/><g id="b"><use transform="matrix(0.05,0,0,0.05,0,0)" xlink:href="#t"/><use transform="matrix(0.05,0,0,0.05,16.3,0)" xlink:href="#u"/><use transform="matrix(0.05,0,0,0.05,28.3,0)" xlink:href="#v"/><use transform="matrix(0.05,0,0,0.05,33.3,0)" xlink:href="#w"/></g><path d="M0 4l72-265h28L28 4H0" id="x"/><path d="M140-251c81 0 123 46 123 126C263-46 219 4 140 4 59 4 17-45 17-125s42-126 123-126zm0 227c63 0 89-41 89-101s-29-99-89-99c-61 0-89 39-89 99S79-25 140-24" id="y"/><g id="c"><use transform="matrix(0.05,0,0,0.05,0,0)" xlink:href="#v"/><use transform="matrix(0.05,0,0,0.05,5,0)" xlink:href="#x"/><use transform="matrix(0.05,0,0,0.05,10,0)" xlink:href="#y"/></g><path d="M275 0h-61l-44-196L126 0H64L0-248h53L97-49l45-199h58l43 199 44-199h52" id="z"/><path d="M199 0l-22-63H83L61 0H9l90-248h61L250 0h-51zm-33-102l-36-108c-10 38-24 72-36 108h72" id="A"/><path d="M24 0v-248h52V0H24" id="B"/><path d="M136-208V0H84v-208H4v-40h212v40h-80" id="C"/><g id="d"><use transform="matrix(0.05,0,0,0.05,0,0)" xlink:href="#z"/><use transform="matrix(0.05,0,0,0.05,15.949999999999998,0)" xlink:href="#A"/><use transform="matrix(0.05,0,0,0.05,28.899999999999995,0)" xlink:href="#B"/><use transform="matrix(0.05,0,0,0.05,33.9,0)" xlink:href="#C"/></g><path d="M169-182c-1-43-94-46-97-3 18 66 151 10 154 114 3 95-165 93-204 36-6-8-10-19-12-30l50-8c3 46 112 56 116 5-17-69-150-10-154-114-4-87 153-88 188-35 5 8 8 18 10 28" id="D"/><path d="M195 0l-88-114-31 24V0H24v-248h52v113l112-113h60L142-143 257 0h-62" id="E"/><g id="e"><use transform="matrix(0.05,0,0,0.05,0,0)" xlink:href="#C"/><use transform="matrix(0.05,0,0,0.05,9.600000000000001,0)" xlink:href="#A"/><use transform="matrix(0.05,0,0,0.05,22.550000000000004,0)" xlink:href="#D"/><use transform="matrix(0.05,0,0,0.05,34.550000000000004,0)" xlink:href="#E"/></g><path d="M101-251c68 0 84 54 84 127C185-50 166 4 99 4S15-52 14-124c-1-75 17-127 87-127zm-1 216c37-5 36-46 36-89s4-89-36-89c-39 0-36 45-36 89 0 43-3 85 36 89" id="F"/><use transform="matrix(0.05,0,0,0.05,0,0)" xlink:href="#F" id="f"/><path d="M23 0v-37h61v-169l-59 37v-38l62-41h46v211h57V0H23" id="G"/><use transform="matrix(0.05,0,0,0.05,0,0)" xlink:href="#G" id="g"/><path d="M182-182c0 78-84 86-111 141h115V0H12c-6-101 99-100 120-180 1-22-12-31-33-32-23 0-32 14-35 34l-49-3c5-45 32-70 84-70 51 0 83 22 83 69" id="H"/><use transform="matrix(0.05,0,0,0.05,0,0)" xlink:href="#H" id="h"/><path d="M128-127c34 4 56 21 59 58 7 91-148 94-172 28-4-9-6-17-7-26l51-5c1 24 16 35 40 36 23 0 39-12 38-36-1-31-31-36-65-34v-40c32 2 59-3 59-33 0-20-13-33-34-33s-33 13-35 32l-50-3c6-44 37-68 86-68 50 0 83 20 83 66 0 35-22 52-53 58" id="I"/><use transform="matrix(0.05,0,0,0.05,0,0)" xlink:href="#I" id="i"/><path d="M165-50V0h-47v-50H5v-38l105-160h55v161h33v37h-33zm-47-37l2-116L46-87h72" id="J"/><use transform="matrix(0.05,0,0,0.05,0,0)" xlink:href="#J" id="j"/><path d="M133-34C117-15 103 5 69 4 32 3 11-16 11-54c-1-60 55-63 116-61 1-26-3-47-28-47-18 1-26 9-28 27l-52-2c7-38 36-58 82-57s74 22 75 68l1 82c-1 14 12 18 25 15v27c-30 8-71 5-69-32zm-48 3c29 0 43-24 42-57-32 0-66-3-65 30 0 17 8 27 23 27" id="K"/><path d="M137-138c1-29-70-34-71-4 15 46 118 7 119 86 1 83-164 76-172 9l43-7c4 19 20 25 44 25 33 8 57-30 24-41C81-84 22-81 20-136c-2-80 154-74 161-7" id="L"/><path d="M147 0L96-86 75-71V0H25v-261h50v150l67-79h53l-66 74L201 0h-54" id="M"/><g id="k"><use transform="matrix(0.05,0,0,0.05,0,0)" xlink:href="#C"/><use transform="matrix(0.05,0,0,0.05,9.600000000000001,0)" xlink:href="#K"/><use transform="matrix(0.05,0,0,0.05,19.6,0)" xlink:href="#L"/><use transform="matrix(0.05,0,0,0.05,29.6,0)" xlink:href="#M"/></g><use transform="matrix(0.05,0,0,0.05,0,0)" xlink:href="#F" id="l"/><use transform="matrix(0.05,0,0,0.05,0,0)" xlink:href="#G" id="m"/><use transform="matrix(0.05,0,0,0.05,0,0)" xlink:href="#H" id="n"/><use transform="matrix(0.05,0,0,0.05,0,0)" xlink:href="#I" id="o"/><use transform="matrix(0.05,0,0,0.05,0,0)" xlink:href="#J" id="p"/></defs></g></svg>